# xmcd
#
# Track frame offsets:
#	150
#	19024
#	32892
#	54078
#	71337
#	86481
#	102871
#	117203
#	134794
#	150434
#	163644
#	177850
#	193550
#	209292
#	225345
#	241103
#	258541
#
# Disc length: 3644 seconds
#
# Revision: 2
# Processed by: cddbd v1.5.2PL0 Copyright (c) Steve Scherf et al.
# Submitted via: audiograbber 1.83.01
#
DISCID=d40e3a11
DTITLE=Various Artist - Promo Only Country Radio November 2007
DYEAR=2007
DGENRE=Country
TTITLE0=Kenny Chesney - Don't Blink (Single Edit)
TTITLE1=Bucky Covington - It's Good To Be Us (Album Version)
TTITLE2=Sugarland - Stay (Album Version)
TTITLE3=Craig Morgan - International Harvester
TTITLE4=Taylor Swift - Our Song (Album Version)
TTITLE5=Eric Church - Sinners Like Me (Edit)
TTITLE6=Kellie Pickler - Things That Never Crossed A Man's Mind
TTITLE7=Chuck Wicks - Stealing Cinderella
TTITLE8=Heartland - Once A Woman Gets A Hold Of Your Heart
TTITLE9=Jypsi - Love Is A Drug
TTITLE10=Ashton Shepherd - Takin' Off This Pain
TTITLE11=Laura Bryna - Make A Wish
TTITLE12=The Drew Davis Band - Back There All The Time
TTITLE13=Dolly - Better Get To Livin'
TTITLE14=Darren Kozelsky - Running Kind
TTITLE15=Sherry Lynn - Scarecrow Dance
TTITLE16=Johnny Patton - The Blue In Your Eyes
EXTD=
EXTT0=
EXTT1=
EXTT2=
EXTT3=
EXTT4=
EXTT5=
EXTT6=
EXTT7=
EXTT8=
EXTT9=
EXTT10=
EXTT11=
EXTT12=
EXTT13=
EXTT14=
EXTT15=
EXTT16=
PLAYORDER=
